<svg width="32" height="32" viewBox="0 0 32 32" fill="none" xmlns="http://www.w3.org/2000/svg">
  <rect width="32" height="32" rx="4" fill="#7B6BA5"/>
  <g transform="translate(4, 2) scale(0.033)">
    <path d="M257.8 0.23838C262.6 -0.396988 270.556 0.359165 275.301 1.08732C315.658 7.27934 346.428 38.7534 385.708 48.0496C392.606 49.6826 403.549 50.279 410.939 49.6317C428.932 48.0562 450.646 43.4346 463.813 30.487C471.987 22.3741 464.361 13.2905 454.026 15.1126C445.424 16.6299 439.042 20.2833 433.705 27.2202C434.269 22.5433 434.817 19.0871 437.449 14.978C444.401 3.83954 463.638 0.943571 474.347 7.88828C483.953 14.1168 483.801 24.1427 477.948 32.7944C452.889 63.7743 381.819 56.1467 347.837 46.6945C336.739 43.5322 325.802 39.8426 315.062 35.6382C289.217 25.7705 258.359 10.8991 231.556 26.2281C222.558 31.374 216.839 38.425 212.018 47.3771C213.41 34.9034 184.664 44.925 193.019 35C188.019 22.5 243.833 1.41381 257.8 0.23838Z" fill="#FFFFFF"/>
    <path d="M634.089 18.2723C644.824 17.0418 666.399 19.9973 675.094 26.8078C680.189 30.7998 678.894 54.1338 678.819 61.1018C672.794 45.4298 666.774 30.8913 648.709 26.3948C640.669 24.3768 632.154 25.6338 625.039 29.8893C619.854 33.0398 614.164 39.4308 613.384 45.1658C609.059 76.8593 668.994 98.8909 690.159 113.713C698.434 119.318 706.374 126.074 711.819 134.577C727.924 159.731 718.629 196.083 693.074 211.153C666.299 226.948 632.949 228.658 603.404 222.013C579.714 215.978 555.394 202.528 538.019 185.165C562.664 200.708 585.969 210.798 615.609 213.048C639.329 214.848 666.394 213.703 682.029 192.782C718.044 144.588 641.614 122.535 613.594 100.322C602.469 91.5003 592.979 80.7223 591.354 65.9513C588.614 38.4278 608.189 21.2603 634.089 18.2723Z" fill="#FFFFFF"/>
    <path d="M52.7998 7.19629C61.9077 6.2473 76.5266 8.85289 84.9512 12.4228C100.637 19.0698 109.716 36.4194 117.723 50.6104C131.281 74.6438 142.158 100.057 152.113 125.758C155.341 119.431 159.242 109.513 162.147 102.69C168.3 88.3756 174.315 74.0021 180.192 59.5723C183.048 52.5418 190.437 31.5812 196.115 27.2002C205.793 19.7333 231.954 20.7911 244.193 21.3701C239.506 22.5746 233.676 23.7626 230.479 27.6846C222.129 37.9312 232.051 113.655 233.914 128.525L236.483 139.059C237.876 144.488 239.538 149.845 241.463 155.109C248.062 172.992 260.094 195.274 278.317 203.307C295.355 210.822 310.998 207.212 327.516 201.082C317.566 210.737 304.223 213.907 290.661 214.227C268.556 214.757 248.55 208.671 232.522 193.082C205.089 166.399 204.659 126.264 203.775 90.6982C203.324 76.8549 202.961 63.0085 202.686 49.1602C199.507 53.5351 192.39 68.7953 189.748 74.293C179.496 95.71 169.558 117.277 159.939 138.985C147.586 166.479 147.173 180.629 115.011 188.672C120.986 182.859 127.058 175.419 129.106 167.152C134.447 145.6 103.559 78.4839 91.6367 58.9678C92.1412 65.3221 91.5326 72.6788 91.0566 79.0557C88.8931 109.636 74.8607 135.347 58.9277 160.856C50.0646 175.046 28.2821 199.483 44.334 215.981C50.7589 222.581 57.3672 223.546 66.0801 223.706C51.1292 227.616 26.9729 229.401 17.3223 213.927C6.03194 195.824 19.2902 179.471 30.3271 165.858L30.373 165.802C41.165 152.492 53.8656 139.516 63.6045 125.495C72.0975 113.288 78.0294 99.4863 81.0439 84.9238C84.7419 67.3253 86.5976 41.5466 75.9727 25.8906C67.8982 13.9929 58.7525 10.5889 45.4961 7.83594L52.7998 7.19629Z" fill="#FFFFFF"/>
  </g>
</svg>
